<!DOCTYPE svg PUBLIC "-//W3C//DTD SVG 1.1//EN" "http://www.w3.org/Graphics/SVG/1.1/DTD/svg11.dtd">
<!-- Uploaded to: SVG Repo, www.svgrepo.com, Transformed by: SVG Repo Mixer Tools -->
<svg width="800px" height="800px" viewBox="0 0 32 32" id="OBJECT" xmlns="http://www.w3.org/2000/svg" fill="#cccccc" stroke="#cccccc">
<g id="SVGRepo_bgCarrier" stroke-width="0"/>
<g id="SVGRepo_tracerCarrier" stroke-linecap="round" stroke-linejoin="round"/>
<g id="SVGRepo_iconCarrier">
<defs>
<style>.cls-1{fill:#b2b2b2;}</style>
</defs>
<title/>
<path class="cls-1" d="M21.49,4.51A12,12,0,1,0,13,25a1,1,0,0,0,1-1V13.41l7.49-7.49a1,1,0,0,0,.29-.7A1,1,0,0,0,21.49,4.51Z"/>
<path d="M27.49,6.51a1,1,0,0,0-1.41,0l-7.79,7.78a1,1,0,0,0-.29.79,1,1,0,0,0,.42.73l9,6.4a1,1,0,0,0,.58.19l.16,0a1,1,0,0,0,.65-.4A12,12,0,0,0,27.49,6.51Z"/>
<path class="cls-1" d="M26.54,24.58l-9-6.39A1,1,0,0,0,16,19V30a1,1,0,0,0,1,1,12.06,12.06,0,0,0,9.77-5,1,1,0,0,0,.17-.75A1,1,0,0,0,26.54,24.58Z"/>
</g>
</svg>