<!DOCTYPE svg PUBLIC "-//W3C//DTD SVG 1.1//EN" "http://www.w3.org/Graphics/SVG/1.1/DTD/svg11.dtd">
<!-- Uploaded to: SVG Repo, www.svgrepo.com, Transformed by: SVG Repo Mixer Tools -->
<svg fill="#cccccc" height="800px" width="800px" version="1.1" id="Layer_1" xmlns="http://www.w3.org/2000/svg" xmlns:xlink="http://www.w3.org/1999/xlink" viewBox="0 0 512.002 512.002" xml:space="preserve" stroke="#cccccc" transform="rotate(270)">
<g id="SVGRepo_bgCarrier" stroke-width="0"/>
<g id="SVGRepo_tracerCarrier" stroke-linecap="round" stroke-linejoin="round"/>
<g id="SVGRepo_iconCarrier"> <g> <g> <g> <path d="M363.79,210.19h43.116c16.344,0,29.642-13.298,29.642-29.642V29.643c0-16.344-13.298-29.642-29.642-29.642H363.79 c-16.344,0-29.642,13.298-29.642,29.642v150.905C334.148,196.892,347.446,210.19,363.79,210.19z M350.317,29.643 c0-7.43,6.044-13.474,13.474-13.474h43.116c7.43,0,13.474,6.044,13.474,13.474v150.905c0,7.43-6.044,13.474-13.474,13.474H363.79 c-7.43,0-13.474-6.044-13.474-13.474V29.643z"/> <path d="M148.211,301.811h-43.116c-16.344,0-29.642,13.298-29.642,29.642v75.453c0,16.344,13.298,29.642,29.642,29.642h43.116 c16.344,0,29.642-13.298,29.642-29.642v-75.453C177.853,315.109,164.555,301.811,148.211,301.811z M161.685,406.906 c0,7.43-6.044,13.474-13.474,13.474h-43.116c-7.43,0-13.474-6.044-13.474-13.474v-75.453c0-7.43,6.044-13.474,13.474-13.474 h43.116c7.43,0,13.474,6.044,13.474,13.474V406.906z"/> <path d="M234.443,210.19h43.116c16.344,0,29.642-13.298,29.642-29.642v-75.453c0-16.344-13.298-29.642-29.642-29.642h-43.116 c-16.344,0-29.642,13.298-29.642,29.642v75.453C204.801,196.892,218.099,210.19,234.443,210.19z M220.969,105.096 c0-7.43,6.044-13.474,13.474-13.474h43.116c7.43,0,13.474,6.044,13.474,13.474v75.453c0,7.43-6.044,13.474-13.474,13.474h-43.116 c-7.43,0-13.474-6.044-13.474-13.474V105.096z"/> <path d="M509.634,250.285l-21.558-21.558c-3.157-3.156-8.275-3.156-11.433,0c-3.157,3.157-3.157,8.275,0,11.433l7.758,7.757 H37.727V27.602l7.758,7.758c3.157,3.156,8.275,3.156,11.433,0c3.157-3.157,3.157-8.275,0-11.433L35.36,2.369 c-3.157-3.156-8.275-3.156-11.433,0L2.369,23.927c-3.157,3.157-3.157,8.275,0,11.433c3.157,3.156,8.275,3.156,11.433,0 l7.757-7.758V484.4l-7.758-7.758c-3.157-3.156-8.275-3.156-11.433,0c-3.157,3.157-3.157,8.275,0,11.433l21.558,21.558 c1.579,1.578,3.649,2.367,5.717,2.367s4.138-0.789,5.716-2.366l21.558-21.558c3.157-3.157,3.157-8.275,0-11.433 c-3.157-3.156-8.275-3.156-11.433,0l-7.757,7.758V264.086H484.4l-7.758,7.757c-3.157,3.157-3.157,8.275,0,11.433 c3.157,3.156,8.275,3.156,11.433,0l21.558-21.558C512.791,258.56,512.791,253.442,509.634,250.285z"/> <path d="M277.559,301.811h-43.116c-16.344,0-29.642,13.298-29.642,29.642v150.905c0,16.344,13.298,29.642,29.642,29.642h43.116 c16.344,0,29.642-13.298,29.642-29.642V331.453C307.201,315.109,293.903,301.811,277.559,301.811z M291.032,482.359 c0,7.43-6.044,13.474-13.474,13.474h-43.116c-7.43,0-13.474-6.044-13.474-13.474V331.453c0-7.43,6.044-13.474,13.474-13.474 h43.116c7.43,0,13.474,6.044,13.474,13.474V482.359z"/> </g> </g> </g> </g>
</svg>