<!DOCTYPE svg PUBLIC "-//W3C//DTD SVG 1.1//EN" "http://www.w3.org/Graphics/SVG/1.1/DTD/svg11.dtd">
<!-- Uploaded to: SVG Repo, www.svgrepo.com, Transformed by: SVG Repo Mixer Tools -->
<svg version="1.1" id="Layer_1" xmlns="http://www.w3.org/2000/svg" xmlns:xlink="http://www.w3.org/1999/xlink" viewBox="0 0 512.001 512.001" xml:space="preserve" width="256px" height="256px" fill="#000000">
<g id="SVGRepo_bgCarrier" stroke-width="0"/>
<g id="SVGRepo_tracerCarrier" stroke-linecap="round" stroke-linejoin="round"/>
<g id="SVGRepo_iconCarrier"> <rect x="11.284" y="66.993" style="fill:#E0E0E0;" width="417.507" height="299.025"/> <g> <polygon style="fill:#ECF0F1;" points="428.791,366.02 220.037,172.96 11.284,366.02 "/> <polygon style="fill:#ECF0F1;" points="11.284,66.995 220.037,260.053 428.791,66.995 "/> </g> <circle style="fill:#FFC107;" cx="421.727" cy="366.019" r="78.988"/> <g> <path style="fill:#231F20;" d="M440.075,277.626V67.047c0-0.008,0-0.015,0-0.023v-0.03h-0.001c0-1.382-0.252-2.776-0.776-4.114 c-1.693-4.325-5.863-7.17-10.508-7.17H11.284c-4.644,0-8.814,2.845-10.508,7.17C0.253,64.219,0,65.612,0.001,66.995H0v0.03 c0,0.008,0,0.015,0,0.023v298.919c0,0.008,0,0.015,0,0.015v0.038h0.001c0,1.382,0.252,2.776,0.776,4.114 c1.693,4.325,5.863,7.17,10.508,7.17h320.903c5.573,44.467,43.589,78.988,89.542,78.988c49.776,0,90.272-40.496,90.272-90.272 C512,322.528,481.084,286.126,440.075,277.626z M367.462,293.932l-83.719-77.425L417.507,92.8v183.055 C398.78,276.722,381.527,283.318,367.462,293.932z M399.97,78.279l-21.26,19.662H236.83c-6.232,0-11.284,5.053-11.284,11.284 c0,6.231,5.052,11.284,11.284,11.284h117.476L220.037,244.682L40.104,78.279H399.97z M22.568,92.8l133.764,123.707L22.568,340.213 V92.8z M172.952,231.877l39.424,36.461c2.162,2,4.912,2.999,7.662,2.999c2.75,0,5.5-1,7.662-2.999l39.425-36.461l84.14,77.813 c-10.156,12.679-16.958,28.14-19.077,45.044H40.104L172.952,231.877z M421.728,433.724c-37.332,0-67.704-30.372-67.704-67.704 s30.372-67.704,67.704-67.704s67.704,30.372,67.704,67.704S459.06,433.724,421.728,433.724z"/> <path style="fill:#231F20;" d="M431.488,324.021c-4.323-1.694-9.242-0.566-12.397,2.84l-23.16,25.013 c-4.234,4.572-3.96,11.712,0.613,15.946c4.572,4.233,11.712,3.958,15.945-0.614l3.597-3.884v38.908 c0,6.231,5.052,11.284,11.284,11.284s11.284-5.053,11.284-11.284v-67.704C438.654,329.884,435.811,325.715,431.488,324.021z"/> <path style="fill:#231F20;" d="M187.933,97.94h-3.761c-6.232,0-11.284,5.053-11.284,11.284c0,6.231,5.052,11.284,11.284,11.284 h3.761c6.232,0,11.284-5.053,11.284-11.284C199.217,102.993,194.166,97.94,187.933,97.94z"/> </g> </g>
</svg>